<?xml version="1.0" encoding="UTF-8" standalone="no"?>
<!-- Created with Inkscape (http://www.inkscape.org/) -->

<svg
   xmlns:dc="http://purl.org/dc/elements/1.1/"
   xmlns:cc="http://creativecommons.org/ns#"
   xmlns:rdf="http://www.w3.org/1999/02/22-rdf-syntax-ns#"
   xmlns:svg="http://www.w3.org/2000/svg"
   xmlns="http://www.w3.org/2000/svg"
   xmlns:sodipodi="http://sodipodi.sourceforge.net/DTD/sodipodi-0.dtd"
   xmlns:inkscape="http://www.inkscape.org/namespaces/inkscape"
   width="19"
   height="19"
   id="svg2"
   version="1.1"
   inkscape:version="0.48.4 r9939"
   sodipodi:docname="icon.svg"
   inkscape:export-filename="/home/rob/Documenten/Chrome/crxviewer/icons/128.png"
   inkscape:export-xdpi="606.3158"
   inkscape:export-ydpi="606.3158">
  <defs
     id="defs4" />
  <sodipodi:namedview
     id="base"
     pagecolor="#ffffff"
     bordercolor="#666666"
     borderopacity="1.0"
     inkscape:pageopacity="0.0"
     inkscape:pageshadow="2"
     inkscape:zoom="15.839192"
     inkscape:cx="12.253285"
     inkscape:cy="10.165935"
     inkscape:document-units="px"
     inkscape:current-layer="layer2"
     showgrid="false"
     inkscape:window-width="1364"
     inkscape:window-height="736"
     inkscape:window-x="0"
     inkscape:window-y="0"
     inkscape:window-maximized="0" />
  <metadata
     id="metadata7">
    <rdf:RDF>
      <cc:Work
         rdf:about="">
        <dc:format>image/svg+xml</dc:format>
        <dc:type
           rdf:resource="http://purl.org/dc/dcmitype/StillImage" />
        <dc:title></dc:title>
      </cc:Work>
    </rdf:RDF>
  </metadata>
  <g
     inkscape:groupmode="layer"
     id="layer2"
     inkscape:label="box">
    <rect
       style="fill:#ffd42a;fill-opacity:1;stroke:#ff0000;stroke-width:0.20365684;stroke-miterlimit:4;stroke-opacity:1;stroke-dasharray:none"
       id="rect3758"
       width="18.810434"
       height="15.779977"
       x="0.064962946"
       y="1.3872938"
       ry="1.6440114"
       rx="2.4647603" />
  </g>
  <g
     inkscape:label="Layer 1"
     inkscape:groupmode="layer"
     id="layer1"
     transform="translate(0,-1033.3622)">
    <path
       style="font-size:38.38275146px;font-style:italic;font-variant:normal;font-weight:bold;font-stretch:normal;line-height:125%;letter-spacing:0px;word-spacing:0px;fill:#000000;fill-opacity:1;stroke:none;font-family:URW Chancery L;-inkscape-font-specification:URW Chancery L Bold Italic"
       d="m 5.8285827,1039.5315 c 0,0.3467 0,0.6933 0,1.04 -0.9612495,-1.0439 -2.7372061,-1.3206 -3.7655062,-0.2491 -0.7968601,0.9494 -0.8019829,2.3898 -0.5371274,3.5719 0.2251078,1.0123 1.1317306,1.715 2.0792411,1.6938 0.8119368,0.107 1.7003291,-0.4179 2.2233925,-0.8785 0,0.3296 0,0.6592 0,0.9889 -1.2705017,0.9388 -3.1737425,0.9987 -4.3663491,-0.1271 -1.10985322,-1.0973 -1.24055791,-2.9437 -0.85414869,-4.4329 0.33720776,-1.2959 1.48177529,-2.2345 2.71399999,-2.2845 0.8743323,-0.082 1.7798115,0.1306 2.5064978,0.6775 z m 4.5948693,3.3105 c 0.822524,0.409 1.090035,1.4354 1.500103,2.2388 0.181853,0.3931 0.363706,0.7861 0.545559,1.1792 -0.325208,0 -0.650416,0 -0.975624,0 -0.423451,-0.8634 -0.753838,-1.7872 -1.267582,-2.593 -0.4817613,-0.6704 -1.3213813,-0.4481 -2.0021916,-0.4881 -0.1673116,0.08 -0.03105,0.4895 -0.075219,0.7031 0,0.7927 0,1.5853 0,2.378 -0.3027279,0 -0.6054557,0 -0.9081836,0 0,-2.43 0,-4.86 0,-7.29 0.9436366,0.023 1.8937397,-0.06 2.8311862,0.073 0.771755,0.1027 1.441774,0.7874 1.483,1.6494 0.135817,0.9064 -0.236856,1.9258 -1.131048,2.1492 z m -2.2749545,-3.0615 c 0,0.8626 0,1.7253 0,2.5879 0.6825775,-0.046 1.4249333,0.1453 2.0428495,-0.2505 0.725963,-0.5862 0.522424,-2.158 -0.4540929,-2.2914 -0.5245853,-0.084 -1.0597399,-0.031 -1.5887566,-0.046 z m 5.1703515,-0.8105 c 0.325209,0 0.650416,0 0.975624,0 0.556,0.9033 1.112,1.8066 1.668,2.7099 0.558998,-0.9033 1.117996,-1.8066 1.676992,-2.7099 0.325209,0 0.650416,0 0.975624,0 -0.719354,1.1669 -1.438707,2.3339 -2.15806,3.5009 0.76731,1.263 1.53462,2.5261 2.301931,3.7891 -0.325208,0 -0.650416,0 -0.975624,0 -0.629434,-1.0335 -1.258868,-2.0671 -1.888303,-3.1006 -0.633929,1.0335 -1.26786,2.0671 -1.901789,3.1006 -0.326707,0 -0.653413,0 -0.980119,0 0.798781,-1.2972 1.597563,-2.5944 2.396346,-3.8916 -0.696874,-1.1328 -1.393747,-2.2656 -2.090622,-3.3984 z"
       id="text2993"
       inkscape:connector-curvature="0" />
  </g>
</svg>
